<svg width="30" height="30" xmlns="http://www.w3.org/2000/svg">

 <g>
  <title>background</title>
  <rect fill="none" id="canvas_background" height="402" width="582" y="-1" x="-1"/>
 </g>
 <g>
  <title>Layer 1</title>
  <path fill="#ffffff" id="svg_1" d="m19.999001,2l-9.998,0c-0.707001,0 -1.191,0.715 -0.928,1.371l0.927,2.629l10,0l0.927,-2.629c0.263,-0.656 -0.221001,-1.371 -0.927999,-1.371z"/>
  <path fill="#ffffff" id="svg_2" d="m20,8l-10,0c0,0 -7,6 -7,13c0,4 3,6 5,6s7,0 7,0s5,0 7,0s5,-2 5,-6c0,-7 -7,-13 -7,-13zm-4,13.898001l0,1.601999l-2,0l0,-1.597c-1.471,-0.275999 -2.396,-1.18 -2.45,-2.500999l1.731999,0c0.083,0.694 0.783,1.139 1.792001,1.139c0.930999,0 1.589999,-0.451 1.589999,-1.098c0,-0.546001 -0.427,-0.860001 -1.476999,-1.086l-1.115001,-0.237c-1.559999,-0.326 -2.325999,-1.139 -2.325999,-2.444001c0,-1.313 0.868999,-2.249 2.254,-2.556999l0,-1.619l2,0l0,1.616c1.35,0.302 2.252001,1.222 2.296,2.465l-1.684999,0c-0.083,-0.676001 -0.712,-1.127 -1.578,-1.127c-0.896,0 -1.489,0.415 -1.489,1.068c0,0.527999 0.409,0.831 1.412001,1.044l1.032,0.219999c1.721,0.362001 2.462001,1.104 2.462001,2.432001c0,1.43 -0.918001,2.389 -2.450001,2.68z"/>
  <path fill="#ffffff" id="svg_3" d="m18,4l-6,0c0,-1.657 1.343,-3 3,-3s3,1.343 3,3z"/>
 </g>
</svg>