<svg width="512" height="512" xmlns="http://www.w3.org/2000/svg">

 <g>
  <title>background</title>
  <rect fill="none" id="canvas_background" height="402" width="582" y="-1" x="-1"/>
 </g>
 <g>
  <title>Layer 1</title>
  <path id="svg_4" fill="#ffffff" d="m373.917999,442.018005l-235.835999,0c-5.522003,0 -10,-4.477997 -10,-10l0,-50.188019c0,-5.522003 4.477997,-10 10,-10l235.835999,0c5.522003,0 10,4.477997 10,10l0,50.187988c0,5.522034 -4.477997,10.000031 -10,10.000031zm-225.835999,-20l215.835999,0l0,-30.188019l-215.835999,0l0,30.188019z"/>
  <path id="svg_6" fill="#ffffff" d="m373.917999,391.829987l-235.835999,0c-5.522003,0 -10,-4.477997 -10,-10l0,-321.515987c0,-5.521999 4.477997,-10 10,-10l235.835999,0c5.522003,0 10,4.478001 10,10l0,321.515987c0,5.52301 -4.477997,10 -10,10zm-225.835999,-20l215.835999,0l0,-301.515984l-215.835999,0l0,301.515984z"/>
  <path id="svg_8" fill="#ffffff" d="m373.917999,391.829987l-117.917999,0c-5.522003,0 -10,-4.477997 -10,-10l0,-321.515987c0,-5.521999 4.477997,-10 10,-10l117.917999,0c5.522003,0 10,4.478001 10,10l0,321.515987c0,5.52301 -4.477997,10 -10,10zm-107.917999,-20l97.917999,0l0,-301.515984l-97.917999,0l0,301.515984z"/>
  <path id="svg_10" fill="#ffffff" d="m227.444,255.979996c-5.522003,0 -10,-4.477997 -10,-10l0,-29.878998c0,-5.522003 4.477997,-10 10,-10s10,4.477997 10,10l0,29.878998c0,5.52301 -4.477005,10 -10,10z"/>
  <path id="svg_12" fill="#ffffff" d="m285.351013,255.979996c-5.522003,0 -10,-4.477997 -10,-10l0,-29.878998c0,-5.522003 4.477997,-10 10,-10s10,4.477997 10,10l0,29.878998c0,5.52301 -4.478027,10 -10,10z"/>
  <path id="svg_14" fill="#ffffff" d="m373.917999,442.018005l-235.835999,0c-5.522003,0 -10,-4.477997 -10,-10l0,-50.188019c0,-5.522003 4.477997,-10 10,-10l235.835999,0c5.522003,0 10,4.477997 10,10l0,50.187988c0,5.522034 -4.477997,10.000031 -10,10.000031zm-225.835999,-20l215.835999,0l0,-30.188019l-215.835999,0l0,30.188019z"/>
  <path id="svg_16" fill="#ffffff" d="m138.082001,461.686005c-5.522003,0 -10,-4.477997 -10,-10l0,-19.667999c0,-5.522003 4.477997,-10 10,-10s10,4.477997 10,10l0,19.667999c0,5.522003 -4.477997,10 -10,10z"/>
  <path id="svg_18" fill="#ffffff" d="m373.917999,461.686005c-5.522003,0 -10,-4.477997 -10,-10l0,-19.667999c0,-5.522003 4.477997,-10 10,-10s10,4.477997 10,10l0,19.667999c0,5.522003 -4.477997,10 -10,10z"/>
  <path id="svg_21" fill="#ffffff" d="m373.917999,391.829987l-235.835999,0c-5.522003,0 -10,-4.477997 -10,-10l0,-321.515987c0,-5.521999 4.477997,-10 10,-10l235.835999,0c5.522003,0 10,4.478001 10,10l0,321.515987c0,5.52301 -4.477997,10 -10,10zm-225.835999,-20l215.835999,0l0,-301.515984l-215.835999,0l0,301.515984z"/>
  <path stroke-width="0" id="svg_24" fill="#ffffff" d="m373.917999,391.829987l-117.917999,0c-5.522003,0 -10,-4.477997 -10,-10l0,-321.515987c0,-5.521999 4.477997,-10 10,-10l117.917999,0c5.522003,0 10,4.478001 10,10l0,321.515987c0,5.52301 -4.477997,10 -10,10zm-107.917999,-20l97.917999,0l0,-301.515984l-97.917999,0l0,301.515984z"/>
  <path id="svg_26" fill="#ffffff" d="m227.444,255.979996c-5.522003,0 -10,-4.477997 -10,-10l0,-29.878998c0,-5.522003 4.477997,-10 10,-10s10,4.477997 10,10l0,29.878998c0,5.52301 -4.477005,10 -10,10z"/>
  <path id="svg_28" fill="#ffffff" d="m285.351013,255.979996c-5.522003,0 -10,-4.477997 -10,-10l0,-29.878998c0,-5.522003 4.477997,-10 10,-10s10,4.477997 10,10l0,29.878998c0,5.52301 -4.478027,10 -10,10z"/>
  <path id="svg_30" fill="#ffffff" d="m138.082001,461.686005c-5.522003,0 -10,-4.477997 -10,-10l0,-19.667999c0,-5.522003 4.477997,-10 10,-10s10,4.477997 10,10l0,19.667999c0,5.522003 -4.477997,10 -10,10z"/>
  <path id="svg_32" fill="#ffffff" d="m373.917999,461.686005c-5.522003,0 -10,-4.477997 -10,-10l0,-19.667999c0,-5.522003 4.477997,-10 10,-10s10,4.477997 10,10l0,19.667999c0,5.522003 -4.477997,10 -10,10z"/>
 </g>
</svg>