<svg width="32" height="32" xmlns="http://www.w3.org/2000/svg">

 <title/>
 <g>
  <title>background</title>
  <rect fill="none" id="canvas_background" height="402" width="582" y="-1" x="-1"/>
 </g>
 <g>
  <title>Layer 1</title>
  <path fill="#ffffff" id="svg_1" d="m24,31l-16,0a3,3 0 0 1 -3,-3l0,-19a1,1 0 0 1 2,0l0,19a1,1 0 0 0 1,1l16,0a1,1 0 0 0 1,-1l0,-19a1,1 0 0 1 2,0l0,19a3,3 0 0 1 -3,3z" class="cls-1"/>
  <path fill="#ffffff" id="svg_2" d="m28,7l-24,0a1,1 0 0 1 0,-2l24,0a1,1 0 0 1 0,2z" class="cls-1"/>
  <path fill="#ffffff" id="svg_3" d="m20,7a1,1 0 0 1 -1,-1l0,-3l-6,0l0,3a1,1 0 0 1 -2,0l0,-4a1,1 0 0 1 1,-1l8,0a1,1 0 0 1 1,1l0,4a1,1 0 0 1 -1,1z" class="cls-1"/>
  <path fill="#ffffff" id="svg_4" d="m16,26a1,1 0 0 1 -1,-1l0,-14a1,1 0 0 1 2,0l0,14a1,1 0 0 1 -1,1z" class="cls-1"/>
  <path fill="#ffffff" id="svg_5" d="m21,24a1,1 0 0 1 -1,-1l0,-10a1,1 0 0 1 2,0l0,10a1,1 0 0 1 -1,1z" class="cls-1"/>
  <path fill="#ffffff" id="svg_6" d="m11,24a1,1 0 0 1 -1,-1l0,-10a1,1 0 0 1 2,0l0,10a1,1 0 0 1 -1,1z" class="cls-1"/>
 </g>
</svg>