<svg width="60" height="60" xmlns="http://www.w3.org/2000/svg">
 <title/>
 <desc/>

 <g>
  <title>background</title>
  <rect fill="none" id="canvas_background" height="402" width="582" y="-1" x="-1"/>
 </g>
 <g>
  <title>Layer 1</title>
  <path fill="#ffffff" id="price-tag" d="m26.205099,26.2929c-0.390999,0.391001 -0.390999,1.023001 0,1.414l6.000002,6.000002c0.195,0.195 0.451,0.292999 0.707001,0.292999c0.255997,0 0.511997,-0.098 0.706997,-0.292999c0.391003,-0.391003 0.391003,-1.023003 0,-1.414001l-5.999998,-6c-0.391001,-0.391001 -1.023001,-0.391001 -1.414001,0l0,0zm-2.585999,4c-0.391001,-0.391001 -1.023001,-0.391001 -1.414001,0c-0.390999,0.391001 -0.390999,1.023001 0,1.414l6,6.000002c0.195002,0.195 0.451,0.292999 0.707001,0.292999c0.256001,0 0.512001,-0.098 0.707001,-0.292999c0.390999,-0.391003 0.390999,-1.023003 0,-1.414001l-6,-6zm-4,4c-0.391001,-0.390999 -1.023001,-0.390999 -1.414001,0c-0.390999,0.390999 -0.390999,1.022999 0,1.414001l6,6c0.195002,0.195 0.451,0.292999 0.707001,0.292999c0.256001,0 0.512001,-0.098 0.707001,-0.292999c0.390999,-0.391003 0.390999,-1.023003 0,-1.414001l-6,-6zm18.879,-2.292999l-10.586,-10.586l-14.585999,14.586l10.585999,10.585999l14.586,-14.585999zm-9.879,-12.707001l11.999998,12c0.391003,0.391001 0.391003,1.022999 0,1.414001l-15.999998,16c-0.195,0.195 -0.451,0.292999 -0.707001,0.292999c-0.256001,0 -0.511999,-0.098 -0.707001,-0.292999l-11.999999,-12c-0.391,-0.391003 -0.391,-1.023003 0,-1.414001l15.999999,-16c0.391001,-0.391001 1.023001,-0.391001 1.414001,0l0,0zm23.268,17.282001c-0.478001,-0.281002 -1.09,-0.120003 -1.368999,0.356998l-11.462002,19.549999c-0.827999,1.433002 -2.667,1.926003 -4.055,1.125999l-2.232998,-1.446999c-0.462002,-0.300999 -1.082001,-0.167999 -1.382,0.294998c-0.301001,0.464001 -0.169001,1.083 0.295,1.383003l2.275999,1.474998c0.785,0.452999 1.644001,0.667999 2.492001,0.667999c1.729,0 3.411999,-0.895 4.334999,-2.493999l11.459,-19.544998c0.278999,-0.476002 0.119999,-1.088001 -0.355999,-1.368l0,0zm8.025002,-31.575002l0,16.000001c0,3.094 -0.984001,5.398998 -3.293003,7.706999l-29.697998,29.74c-0.945,0.945 -2.201,1.464001 -3.537001,1.464001c-1.336,0 -2.591,-0.519001 -3.534,-1.464001l-18.385,-18.383999c-0.945,-0.945 -1.465,-2.201 -1.465,-3.536999c0,-1.336002 0.52,-2.591003 1.465,-3.535004l25.974,-25.938998c-6.792,-1.544 -11.007,-1.648 -12.241,-1.287c0.521,0.533 2.144,1.665 6.061,3.209c0.514,0.203 0.766001,0.783 0.563999,1.297c-0.202999,0.514 -0.783998,0.763 -1.296999,0.564c-8.108,-3.196 -7.634,-4.968 -7.455,-5.635c0.370999,-1.39 2.352,-1.853 6.41,-1.498c3.305,0.289 7.570999,1.104 12.011999,2.293c4.441002,1.19 8.541,2.617 11.547001,4.02c3.695,1.723 5.175999,3.112 4.803001,4.503c-0.360001,1.342 -2.231003,1.505999 -2.846001,1.559999c-0.028999,0.003 -0.059002,0.004 -0.088001,0.004c-0.513,0 -0.949001,-0.393 -0.994999,-0.913c-0.049,-0.549999 0.357998,-1.035 0.909,-1.082999c0.425999,-0.037001 0.709,-0.095 0.891998,-0.147c-0.427998,-0.447 -1.510998,-1.144 -3.243,-1.974c-0.362999,0.612 -0.559998,1.315 -0.559998,2.035c0,2.206 1.793999,4.000001 4,4.000001c2.205997,0 4,-1.794001 4,-4.000001c0,-2.206 -1.794003,-4 -4,-4c-0.553001,0 -1,-0.447 -1,-1c0,-0.552999 0.446999,-1 1,-1c3.308998,0 6,2.691 6,6c0,3.309001 -2.691002,6.000001 -6,6.000001c-3.309002,0 -6,-2.691 -6,-6.000001c0,-1.003 0.264,-1.98 0.734997,-2.852c-2.392998,-1.004999 -5.602997,-2.129999 -9.670998,-3.221c-0.429001,-0.115 -0.842001,-0.22 -1.255001,-0.325l-26.842,26.803999c-0.567,0.566002 -0.879,1.32 -0.879,2.120003c0,0.801998 0.312,1.554996 0.879,2.121998l18.384999,18.385002c1.133001,1.132999 3.109001,1.132999 4.242001,0l29.698002,-29.740002c1.948997,-1.948 2.708,-3.712999 2.708,-6.292999l0,-16.000001c0,-1.654 -1.346001,-3 -3,-3l-16,0c-2.580002,0 -4.345001,0.759 -6.293003,2.707c-0.390999,0.391 -1.022999,0.391 -1.414,0c-0.390999,-0.391 -0.390999,-1.023 0,-1.414c2.308001,-2.309 4.613001,-3.293 7.707003,-3.293l16,0c2.757,0 5,2.243 5,5l0,0z"/>
 </g>
</svg>