<svg width="30" height="30" xmlns="http://www.w3.org/2000/svg">

 <g>
  <title>background</title>
  <rect fill="none" id="canvas_background" height="402" width="582" y="-1" x="-1"/>
 </g>
 <g>
  <title>Layer 1</title>
  <path fill="#ffffff" id="svg_1" d="m24,7l-18,0l0,-1c0,-1.105 0.895,-2 2,-2l19,0c1.105,0 2,0.895 2,2l0,14c0,1.105 -0.895,2 -2,2l-1,0l0,-13c0,-1.105 -0.895,-2 -2,-2z"/>
  <path fill="#ffffff" id="svg_2" d="m22,9l-19,0c-1.105,0 -2,0.895 -2,2l0,13c0,1.105 0.895,2 2,2l19,0c1.105,0 2,-0.895 2,-2l0,-13c0,-1.105 -0.895,-2 -2,-2zm-6,10l-3,0l0,3c0,0.552 -0.448,1 -1,1l0,0c-0.552,0 -1,-0.448 -1,-1l0,-3l-3,0c-0.552,0 -1,-0.448 -1,-1l0,0c0,-0.552 0.448,-1 1,-1l3,0l0,-3c0,-0.552 0.448,-1 1,-1l0,0c0.552,0 1,0.448 1,1l0,3l3,0c0.552,0 1,0.448 1,1l0,0c0,0.552 -0.448,1 -1,1z"/>
 </g>
</svg>