<svg width="30" height="30" xmlns="http://www.w3.org/2000/svg">

 <g>
  <title>background</title>
  <rect fill="none" id="canvas_background" height="402" width="582" y="-1" x="-1"/>
 </g>
 <g>
  <title>Layer 1</title>
  <path fill="#ffffff" id="svg_1" d="m14,23c0,-3.539 2.047001,-6.591 5.017,-8.062c0.409,-0.57 0.785,-1.273 0.855,-1.889999c0.354,-0.027 0.91,-0.352 1.073999,-1.635c0.088001,-0.689 -0.261999,-1.076 -0.473999,-1.198c0,0 0.528,-1.003 0.528,-2.214c0,-2.428 -0.952999,-4.5 -3,-4.5c0,0 -0.711,-1.5 -3,-1.5c-4.242,0 -6,2.721 -6,6c0,1.103999 0.528,2.214 0.528,2.214c-0.212,0.122 -0.562,0.51 -0.474,1.198c0.164001,1.283 0.72,1.608 1.074,1.635c0.134999,1.197 1.422,2.729 1.872,2.952l0,2c-1,3 -9,1 -9,8l11.523,0c-0.333,-0.940001 -0.523,-1.945999 -0.523,-3z"/>
  <path fill="#ffffff" id="svg_2" d="m23,16c-3.865999,0 -7,3.134001 -7,7c0,3.865999 3.134001,7 7,7s7,-3.134001 7,-7c0,-3.865999 -3.134001,-7 -7,-7zm3,8l-2,0l0,2c0,0.552999 -0.448,1 -1,1s-1,-0.447001 -1,-1l0,-2l-2,0c-0.552,0 -1,-0.447001 -1,-1s0.448,-1 1,-1l2,0l0,-2c0,-0.552999 0.448,-1 1,-1s1,0.447001 1,1l0,2l2,0c0.552,0 1,0.447001 1,1s-0.448,1 -1,1z"/>
 </g>
</svg>