<svg width="50" height="50" xmlns="http://www.w3.org/2000/svg">

 <g>
  <title>background</title>
  <rect fill="none" id="canvas_background" height="402" width="582" y="-1" x="-1"/>
 </g>
 <g>
  <title>Layer 1</title>
  <circle id="svg_1" stroke-width="2" stroke-miterlimit="10" stroke-linecap="round" stroke="#ffffff" r="24" fill="none" cy="25" cx="25"/>
  <rect x="-7.044086" y="38.269367" id="svg_2" width="50" height="50" fill="none"/>
  <path fill="#ffffff" id="svg_3" d="m29.933001,35.528c-0.146,-1.612 -0.09,-2.737 -0.09,-4.209999c0.73,-0.383001 2.038,-2.825001 2.259001,-4.888c0.573997,-0.047001 1.479,-0.607 1.743999,-2.818001c0.142998,-1.187 -0.424999,-1.855 -0.771,-2.064999c0.933998,-2.809 2.874001,-11.499001 -3.588001,-12.397001c-0.664999,-1.168 -2.368,-1.759 -4.580999,-1.759c-8.854,0.163 -9.922,6.686 -7.981001,14.156001c-0.344999,0.209999 -0.913,0.877998 -0.771,2.064999c0.266001,2.211 1.17,2.771 1.744001,2.818001c0.219999,2.062 1.58,4.504999 2.311998,4.888c0,1.473 0.055,2.598 -0.091,4.209999c-1.261,3.389999 -7.737,3.654999 -11.473,6.924c3.906,3.932999 10.236,6.746002 16.916,6.746002s14.532001,-5.274002 15.839001,-6.713001c-3.713001,-3.299 -10.204,-3.555 -11.468,-6.957001z"/>
 </g>
</svg>